<svg xmlns="http://www.w3.org/2000/svg" viewBox="0 0 554 176.5"><path d="M75.6 1.25H1c-.3 0-.6.2-.6.5v174.4c0 .3.3.5.6.5h30.2c.3 0 .5-.3.5-.5V20.65c0-.2.1-.3.2-.3l34.6-.1c12.6 0 19.5 12.7 19.5 35.7s-6.9 35.7-19.5 35.7H45.7c-.3 0-.5.2-.5.5v18.1c0 .3.2.6.5.6h29.8c10.5 0 20.8-4.9 28.3-13.3 8.8-9.9 13.4-24.3 13.4-41.5.1-33.2-16.2-54.8-41.6-54.8m124.5 73-14.9-1.1c-11.2-1-19.5-7.2-19.5-25.4 0-21.4 9.6-27.2 22.4-27.2h41.2c.3 0 .5-.2.5-.5V1.75c0-.3-.3-.5-.5-.5h-45.5c-28.1 0-48.1 16.5-48.1 49.4v1.4c0 26 16 44.7 39.8 46.6l14.8 1.1c11.3.9 18.3 11 18.3 26.3v4.3c0 9.6-2.4 27.1-23 27.1h-42.8c-.3 0-.5.3-.5.6v18.1c0 .3.3.5.5.5H196c16.4 0 43.8-6.6 43.8-51.2q0-24.3-11.1-38.1c-6.3-7.9-15.7-12.1-28.6-13.1M257.15.15h23l53.6 157h.5l53.4-157h23l-63.3 176.6h-27.4zm171.7 0h60.8c31.2 0 54.9 13.8 54.9 46.7 0 20-11.4 35.6-32.6 41.1v.5c13.4 3.2 19.5 11.9 25.7 33.1 5.7 19.5 10.6 35.9 16.6 55.1h-23c-4-14.1-10.4-39.3-13.8-51.4-6.4-21.3-11.1-27.9-38.6-27.9h-28.4v79.4h-21.5V.15zm21.5 79.1h34.1c23.7 0 38.6-9.4 38.6-31.2 0-25-18.5-29.9-37.1-29.9h-35.6z"/></svg>