<svg xmlns="http://www.w3.org/2000/svg" viewBox="0 0 100 100"><defs><mask id="a"><path fill="#fff" d="M26 8h48a6 6 0 0 1 6 6v44H20V14a6 6 0 0 1 6-6m-6 52-8 22a4 4 0 0 0 4 4h68a4 4 0 0 0 4-4l-8-22Z"/><g stroke="#000" stroke-linecap="round" stroke-linejoin="round" stroke-width="2"><rect width="46" height="31" x="27" y="17" rx="3"/><ellipse cx="33" cy="57" rx="5.5" ry="5"/><ellipse cx="54" cy="71" rx="6" ry="4"/><ellipse cx="70" cy="71" rx="6" ry="4"/></g><g fill="none" stroke="#000" stroke-linecap="round" stroke-linejoin="round" stroke-width="2"><path d="M31.5 68.07a7 3 0 1 0 3 0"/><path d="M31.5 62v8q1.5 2.5 3 0v-8"/></g></mask></defs><path d="M0 0h100v100H0z" mask="url(#a)"/></svg>