<svg xmlns="http://www.w3.org/2000/svg" viewBox="0 0 32 32"><path fill="#444" d="M15.53 8.41c0 .1-.1.1-.1.1h-.1c-.1 0-.1-.1-.2-.2 0 0-.1-.1-.1-.2s0-.1.1-.1l.2.1c.1.1.2.2.2.3M13.7 7.4c0-.5-.2-.81-.51-.81 0 0 0 .1-.1.1v.2h.3c0 .2.1.3.1.51zm3.57-.5c.2 0 .3.2.4.5h.21c-.1-.1-.1-.2-.1-.3s0-.2-.1-.31-.2-.2-.31-.2c0 0-.1.1-.2.1 0 .1.1.1.1.2M14.2 8.5c-.1 0-.1 0-.1-.1s0-.2.1-.3a.5.5 0 0 0 .3-.1c.1 0 .1.1.1.1 0 .1-.1.2-.3.4zm-1.12-.1c-.41-.2-.51-.5-.51-1.02 0-.3 0-.5.2-.71.1-.2.3-.3.51-.3s.3.1.51.3c.1.3.2.6.2.91v.2h.1v-.1c.1 0 .1-.2.1-.6 0-.31 0-.62-.2-.92s-.4-.51-.81-.51a.8.8 0 0 0-.72.5c-.2.41-.24.72-.24 1.23 0 .4.14.82.55 1.22.1-.1.2-.1.3-.2m12.76 14.4c.1 0 .1-.04.1-.13 0-.23-.1-.5-.4-.79s-.82-.5-1.43-.58h-.2c-.1-.03-.1-.03-.2-.03l-.42-.05a8 8 0 0 0 .41-2.52c0-1.02-.2-1.73-.61-2.34s-.82-.92-1.33-1.02c-.1.1-.1.1-.1.2.51.2 1.02.61 1.33 1.22.3.72.4 1.33.4 2.04 0 .58-.1 1.42-.5 2.5-.41.17-.82.54-1.13 1.14 0 .09 0 .14.1.14 0 0 .1-.1.21-.27.2-.17.3-.34.51-.52.3-.17.51-.26.82-.26.5 0 1.02.07 1.32.21.41.13.61.28.72.44l.3.43c0 .13.1.2.1.2zM16.45 8c-.1-.1-.1-.3-.1-.5 0-.41 0-.62.2-.92q.3-.3.62-.31c.3 0 .5.2.71.4.1.31.2.52.2.82q0 .77-.6.92s.1.1.2.1c.2 0 .3.1.5.2.1-.6.21-1.01.21-1.52 0-.62-.1-1.02-.3-1.33-.31-.3-.62-.4-1.03-.4q-.45 0-.91.3c-.2.3-.31.5-.31.82 0 .5.1.91.3 1.32.1 0 .21.1.31.1m1.23 1.64c-1.33.91-2.35 1.32-3.17 1.32-.71 0-1.42-.3-2.04-.82.1.2.2.41.31.51l.61.62c.41.4.92.6 1.43.6.71 0 1.53-.4 2.55-1.11l.92-.62c.2-.2.4-.4.4-.7 0-.11 0-.21-.1-.21-.1-.2-.6-.51-1.63-.82a6 6 0 0 0-2.04-.61q-.45 0-1.53.61c-.61.4-1.02.82-1.02 1.22 0 0 .1.1.2.31.62.51 1.23.82 1.84.82.82 0 1.84-.41 3.16-1.43v.2c.1 0 .1.1.1.1m2.34 20.6c.4.76 1.12 1.15 1.94 1.15q.3 0 .61-.1c.2-.03.4-.1.51-.19l.3-.22c.21-.07.21-.12.31-.17l1.74-1.5c.4-.33.81-.61 1.32-.86.41-.25.82-.4 1.02-.5.3-.08.51-.2.72-.37.1-.15.2-.34.2-.59 0-.3-.2-.52-.4-.68s-.42-.28-.62-.35-.4-.23-.71-.51a3 3 0 0 1-.51-1.11l-.1-.6c-.1-.27-.1-.47-.2-.59 0-.03 0-.04-.11-.04s-.3.1-.4.27q-.32.26-.62.57c-.1.2-.4.39-.61.56-.3.17-.62.27-.82.27-.81 0-1.22-.23-1.53-.67-.2-.32-.3-.7-.4-1.13-.21-.17-.31-.26-.52-.26-.5 0-.71.53-.71 1.6v3.17c0 .1-.1.3-.1.61-.1.32-.1.68-.1 1.08l-.2 1.13zm-14.79-.55q1.42.21 3.28.9 1.85.66 2.26.67 1.07 0 1.8-.92c.1-.2.1-.43.1-.7q0-1.45-1.75-3.66l-.69-.93q-.21-.3-.54-.89a9 9 0 0 0-.56-.92 3 3 0 0 0-.62-.7 2 2 0 0 0-.91-.47q-.64.13-.87.42c-.23.29-.22.4-.24.63q-.05.33-.2.43t-.5.16l-.28.01h-.28q-.8 0-1.1.17a1.5 1.5 0 0 0-.39.98q0 .25.13.83.12.57.12.9 0 .63-.38 1.25-.38.66-.39 1 .16.6 2.01.84m3.4-9.27q0-1.04.56-2.4.55-1.35 1.1-1.93c-.03-.1-.08-.1-.16-.1l-.1-.1a8 8 0 0 0-1.08 2.03 6 6 0 0 0-.66 2.39q0 .69.32 1.2.33.52 1.62 1.45l1.08.7q1.74 1.5 1.76 2.1c0 .22-.1.43-.4.67a1 1 0 0 1-.72.36q-.03 0-.03.08l.32.6c.43.59 1.34.87 2.57.87 2.24 0 3.97-.91 5.3-2.75 0-.51 0-.83-.1-.96v-.38q0-1 .3-1.48c.3-.48.41-.48.72-.48q.3 0 .61.22c.1-.78.1-1.47.1-2.08 0-.93 0-1.7-.2-2.4a5 5 0 0 0-.51-1.54l-.61-.92c-.2-.3-.3-.6-.51-.91-.1-.41-.2-.72-.2-1.23-.31-.5-.52-1.02-.82-1.53-.2-.5-.41-1.02-.62-1.43l-.91.72a4.6 4.6 0 0 1-2.55 1.02c-.62 0-1.13-.1-1.43-.51l-.61-.51c0 .3-.1.71-.3 1.12l-.65 1.22a6 6 0 0 0-.47 1.43c-.04.2-.07.41-.1.41l-.76 1.53a9 9 0 0 0-1.24 4.12q0 .36.06.72a1.5 1.5 0 0 1-.68-1.32m7.3 9.65q-1.98 0-3.06.53v-.03c-.5.61-1.08.93-1.87.93q-.75 0-2.35-.58a28 28 0 0 0-2.85-.84l-.56-.1-.78-.14a6 6 0 0 1-.73-.2 2 2 0 0 1-.6-.32q-.22-.19-.22-.44c0-.25.04-.33.1-.52l.21-.33q.12-.16.18-.31l.14-.29q.06-.14.1-.3t.04-.3c0-.15-.04-.4-.12-.95a9 9 0 0 1-.12-1q0-.7.33-1.07c.33-.37.43-.39.66-.39H5.6q.14 0 .45-.17l.17-.42.1-.25.06-.18.16-.23a.6.6 0 0 1-.12-.4q0-.17.02-.27 0-.56.54-1.58l.35-.64c.3-.55.52-.96.69-1.37q.25-.6.56-1.83.24-1.08 1.16-2.14l.77-.92q.78-.91 1.07-1.53c.29-.62.3-.92.3-1.33q0-.3-.17-1.83a30 30 0 0 1-.15-2.96c0-.72.06-1.23.2-1.74s.36-1.02.7-1.42c.31-.41.72-.82 1.33-1.02s1.33-.31 2.14-.31c.3 0 .62 0 .92.1q.45 0 1.22.3c.41.21.82.42 1.13.72.4.3.71.82 1.02 1.33.2.61.4 1.22.5 2.04.1.5.1 1.02.21 1.73 0 .61.1 1.02.1 1.33.1.3.1.71.2 1.22.1.41.21.82.42 1.12.2.41.4.82.7 1.23l1.13 1.63a10 10 0 0 1 2.04 3.26c.51 1.02.82 2.35.82 3.77a7 7 0 0 1-.3 2.05c.2 0 .3.08.4.22s.2.45.3.93l.1.75c.1.23.21.44.52.63.2.18.4.33.71.45.2.1.51.25.72.43q.3.3.3.64 0 .52-.3.79a1.6 1.6 0 0 1-.72.44l-1.22.6q-.77.45-1.53 1.1l-1.02.86a6 6 0 0 1-1.13.86q-.47.27-1.12.27l-.71-.08a2.3 2.3 0 0 1-1.63-1.24c-1.63-.2-2.96-.3-3.78-.3z"/></svg>